<svg xmlns="http://www.w3.org/2000/svg" viewBox="0 0 512 512"><defs><style>.cls-1{fill:#8cc080;}.cls-2{fill:#cf4b74;}.cls-3{fill:#455581;}.cls-4{fill:#4e5e9c;}.cls-5{fill:#fff;}.cls-6{fill:#1a1f32;}.cls-7{fill:#1e2440;}.cls-8{fill:#7f89b3;}.cls-9{fill:#c27133;}.cls-10{fill:#242a4c;}.cls-11{fill:#2b3060;}.cls-12{fill:#d9e175;}.cls-13{fill:#c4ca43;}.cls-14{fill:#c9dcf1;}.cls-15{fill:none;stroke:#9bbddf;stroke-miterlimit:10;stroke-width:10px;}.cls-16{fill:#b1446c;}.cls-17{fill:#b3c4d3;}</style></defs><title>Artificial Intelligence</title><g id="BULINE"><circle class="cls-1" cx="256" cy="256" r="256"/></g><g id="Icons"><polygon class="cls-2" points="189.33 455.83 320.81 455.83 300.81 401.73 209.33 401.73 189.33 455.83"/><path class="cls-3" d="M423.42,285c0,42-22.95,79.6-59.14,104.87-21.64,15.13-48,25.84-77,30.44A205.52,205.52,0,0,1,255,422.82c-41.72,0-79.9-12.4-109.32-33C109.45,364.58,86.5,327,86.5,285c0-76.13,75.42-137.84,168.46-137.84a205.52,205.52,0,0,1,32.27,2.53C364.83,162,423.42,217.88,423.42,285Z"/><path class="cls-4" d="M423.42,285c0,42-22.95,79.6-59.14,104.87-21.64,15.13-48,25.84-77,30.44-29-4.6-55.41-15.31-77.05-30.44C174,364.58,151,327,151,285c0-67.1,58.59-123,136.19-135.31C364.83,162,423.42,217.88,423.42,285Z"/><path class="cls-3" d="M386.25,146.14v26.18H123.68V146.14A131.27,131.27,0,0,1,341.52,47.43c2.16,1.88,4.26,3.85,6.28,5.87a131.22,131.22,0,0,1,38.45,92.84Z"/><path class="cls-4" d="M400.77,172.32h-226V146.14A131.31,131.31,0,0,1,280.49,17.35a130.62,130.62,0,0,1,61,30.08c2.16,1.88,4.26,3.85,6.28,5.87a131.22,131.22,0,0,1,38.45,92.84v8.05A18.58,18.58,0,0,1,400.77,172.32Z"/><path class="cls-5" d="M319.5,82.59a64.54,64.54,0,1,1-48-62.38A64.53,64.53,0,0,1,319.5,82.59Z"/><path class="cls-6" d="M310.7,82.59a55.76,55.76,0,1,1-41.44-53.87A55.72,55.72,0,0,1,310.7,82.59Z"/><ellipse class="cls-7" cx="269.26" cy="82.59" rx="41.44" ry="53.88"/><circle class="cls-8" cx="276.23" cy="75.99" r="15.4"/><path class="cls-9" d="M143.1,128.8h58.71a4.75,4.75,0,0,1,4.75,4.75v20.19a0,0,0,0,1,0,0H138.35a0,0,0,0,1,0,0V133.55A4.75,4.75,0,0,1,143.1,128.8Z"/><path class="cls-9" d="M309.22,128.8h58.71a4.75,4.75,0,0,1,4.75,4.75v20.19a0,0,0,0,1,0,0H304.47a0,0,0,0,1,0,0V133.55A4.75,4.75,0,0,1,309.22,128.8Z"/><path class="cls-10" d="M400.77,172.32a18.57,18.57,0,0,1-18.59,18.57H124.66a18.57,18.57,0,0,1-1-37.12c.32,0,.64,0,1,0H382.18a18.8,18.8,0,0,1,4.07.45A18.58,18.58,0,0,1,400.77,172.32Z"/><path class="cls-11" d="M400.77,172.32a18.57,18.57,0,0,1-18.59,18.57H175.71a18.57,18.57,0,0,1-1-37.12c.33,0,.65,0,1,0H386.25v.45A18.58,18.58,0,0,1,400.77,172.32Z"/><path class="cls-9" d="M189.14,76.24,178,87.37a5.71,5.71,0,0,1-8.07,0l-20-20A131.59,131.59,0,0,1,168.4,47.43l20.74,20.74A5.7,5.7,0,0,1,189.14,76.24Z"/><path class="cls-9" d="M360,67.35l-20,20a5.71,5.71,0,0,1-8.07,0L320.78,76.24a5.7,5.7,0,0,1,0-8.07l20.74-20.74c2.16,1.88,4.26,3.85,6.28,5.87A131.43,131.43,0,0,1,360,67.35Z"/><rect class="cls-12" x="147.15" y="85.15" width="15.89" height="16.87" rx="1.58"/><rect class="cls-13" x="147.15" y="106.42" width="15.89" height="16.87" rx="1.58"/><rect class="cls-12" x="348.11" y="85.15" width="15.89" height="16.87" rx="1.58"/><rect class="cls-13" x="348.11" y="106.42" width="15.89" height="16.87" rx="1.58"/><path class="cls-9" d="M364.28,389.85c-29.42,20.56-67.6,33-109.32,33s-79.89-12.41-109.32-33Z"/><rect class="cls-14" x="168.72" y="436.23" width="172.7" height="60.91" rx="21.77"/><rect class="cls-15" x="183.34" y="446.29" width="143.47" height="40.8" rx="17.11"/><circle class="cls-7" cx="211.42" cy="466.69" r="14"/><circle class="cls-7" cx="254.96" cy="466.69" r="14"/><circle class="cls-7" cx="297.42" cy="466.69" r="14"/><circle class="cls-14" cx="211.42" cy="466.69" r="4"/><circle class="cls-14" cx="255.07" cy="466.69" r="4"/><circle class="cls-14" cx="297.42" cy="466.69" r="4"/><path class="cls-10" d="M72.2,321.86,58.18,284l50.56-44.9-13.29-15-60.78,54,20.51,55.31a41.25,41.25,0,0,0-4.26,5.72,42.08,42.08,0,0,0,4.83,50.53A9,9,0,0,0,70,388.28l1.1-1.77a9.12,9.12,0,0,0-1-10.8A22,22,0,0,1,92.43,340a8.93,8.93,0,0,0,9.84-4l1.07-1.75a9,9,0,0,0-5-13.32A42.15,42.15,0,0,0,72.2,321.86Z"/><circle class="cls-12" cx="46.42" cy="281.1" r="16.45"/><path class="cls-13" d="M46.42,281.1a16.45,16.45,0,0,1,8.23-14.25,16.45,16.45,0,1,0,0,28.49A16.44,16.44,0,0,1,46.42,281.1Z"/><circle class="cls-2" cx="102.1" cy="231.65" r="39.23"/><circle class="cls-12" cx="102.1" cy="231.65" r="16.45"/><path class="cls-16" d="M79.32,231.65a39.23,39.23,0,0,1,31-38.36,39.73,39.73,0,0,0-8.22-.87,39.23,39.23,0,0,0,0,78.46,39.73,39.73,0,0,0,8.22-.87A39.23,39.23,0,0,1,79.32,231.65Z"/><path class="cls-13" d="M102.1,231.65a16.41,16.41,0,0,1,8.22-14.24,16.45,16.45,0,1,0,0,28.48A16.41,16.41,0,0,1,102.1,231.65Z"/><path class="cls-10" d="M439.8,321.86l14-37.83-50.56-44.9,13.29-15,60.78,54-20.51,55.31a41.25,41.25,0,0,1,4.26,5.72,42.08,42.08,0,0,1-4.83,50.53A9,9,0,0,1,442,388.28l-1.1-1.77a9.12,9.12,0,0,1,1-10.8A22,22,0,0,0,419.57,340a8.93,8.93,0,0,1-9.84-4l-1.07-1.75a9,9,0,0,1,5-13.32A42.15,42.15,0,0,1,439.8,321.86Z"/><circle class="cls-12" cx="465.58" cy="281.1" r="16.45"/><path class="cls-13" d="M465.58,281.1a16.45,16.45,0,0,0-8.23-14.25,16.45,16.45,0,1,1,0,28.49A16.44,16.44,0,0,0,465.58,281.1Z"/><circle class="cls-2" cx="409.9" cy="231.65" r="39.23"/><circle class="cls-12" cx="409.9" cy="231.65" r="16.45"/><path class="cls-16" d="M432.68,231.65a39.23,39.23,0,0,0-31-38.36,39.73,39.73,0,0,1,8.22-.87,39.23,39.23,0,1,1,0,78.46,39.73,39.73,0,0,1-8.22-.87A39.23,39.23,0,0,0,432.68,231.65Z"/><path class="cls-13" d="M409.9,231.65a16.41,16.41,0,0,0-8.22-14.24,16.45,16.45,0,1,1,0,28.48A16.41,16.41,0,0,0,409.9,231.65Z"/><path class="cls-17" d="M302.93,291.94,279.84,315c-.54.54-1.09,1-1.66,1.52A29.91,29.91,0,0,1,237.52,315l-23.61-23.62a29.91,29.91,0,0,1,0-42.31L237,226a29.89,29.89,0,0,1,40.66-1.52c.57.47,1.12,1,1.66,1.52l23.61,23.61A29.92,29.92,0,0,1,302.93,291.94Z"/><path class="cls-14" d="M302.93,291.94,279.84,315c-.54.54-1.09,1-1.66,1.52-.57-.47-1.12-1-1.66-1.52l-23.61-23.62a29.91,29.91,0,0,1,0-42.31L276,226c.54-.54,1.09-1,1.66-1.52.57.47,1.12,1,1.66,1.52l23.61,23.61A29.92,29.92,0,0,1,302.93,291.94Z"/></g></svg>